<svg width="512" height="512" viewBox="0 0 512 512" fill="none" xmlns="http://www.w3.org/2000/svg">
<g clip-path="url(#clip0_2_723)">
<path d="M128 512H170.667C189.518 512 204.8 496.718 204.8 477.867V392.534C204.8 373.683 189.518 358.401 170.667 358.401H128C119.996 358.401 93.867 351.02 93.867 256.001C93.867 160.982 119.996 153.6 128 153.6H170.667C189.518 153.6 204.8 138.318 204.8 119.467V34.133C204.8 15.282 189.518 0 170.667 0H128C97.971 0 0 18.458 0 256C0 493.542 97.971 512 128 512ZM187.733 392.533V477.866C187.733 487.292 180.092 494.933 170.666 494.933H136.533V375.467H170.666C180.092 375.467 187.733 383.108 187.733 392.533ZM187.733 34.133V119.466C187.733 128.892 180.092 136.533 170.666 136.533H136.533V17.067H170.666C180.092 17.067 187.733 24.708 187.733 34.133ZM119.467 17.766V137.548C98.372 142.669 76.8 169.122 76.8 256C76.8 342.878 98.372 369.357 119.467 374.451V494.233C90.36 489.813 17.067 458.589 17.067 255.999C17.067 53.409 90.359 22.187 119.467 17.766Z" fill="#2F3133"/>
<path d="M349.867 85.332C260.463 85.332 187.734 146.584 187.734 221.865C187.901 247.468 196.223 272.352 211.491 292.905L196.566 347.621C195.866 350.187 196.403 352.933 198.018 355.046C199.633 357.159 202.141 358.399 204.8 358.399C205.558 358.397 206.312 358.296 207.044 358.1L270.506 340.803C295.34 352.442 322.44 358.451 349.866 358.399C439.27 358.399 512 297.147 512 221.866C512 146.585 439.27 85.332 349.867 85.332ZM349.867 341.332C323.961 341.402 298.388 335.5 275.132 324.086C273.947 323.509 272.644 323.217 271.326 323.233C270.568 323.235 269.814 323.336 269.082 323.532L216.96 337.749L229.052 293.376C229.756 290.792 229.206 288.027 227.567 285.909C213.031 267.707 205.015 245.159 204.8 221.866C204.8 155.989 269.875 102.399 349.867 102.399C429.859 102.399 494.934 155.988 494.934 221.866C494.934 287.744 429.858 341.332 349.867 341.332Z" fill="#2F3133"/>
<path d="M443.733 179.199H301.525L297.915 157.686C296.339 150.136 289.564 144.811 281.855 145.065H264.532C259.819 145.065 255.999 148.885 255.999 153.598C255.999 158.311 259.82 162.131 264.532 162.131H281.36L296.387 251.731C297.315 257.215 300.012 262.244 304.067 266.05C300.585 270.486 298.684 275.958 298.665 281.598C298.665 295.736 310.127 307.198 324.265 307.198C338.403 307.198 349.865 295.736 349.865 281.598C349.837 278.684 349.306 275.798 348.295 273.065H368.502C367.491 275.798 366.96 278.685 366.932 281.598C366.854 293.012 374.342 303.1 385.29 306.329C396.239 309.558 408.002 305.148 414.13 295.518C420.258 285.888 419.269 273.364 411.707 264.814C422.411 257.388 429.478 245.784 431.163 232.865L434.465 196.266H443.732C448.445 196.266 452.265 192.445 452.265 187.733C452.267 183.02 448.446 179.199 443.733 179.199ZM332.8 281.599C332.8 286.312 328.98 290.132 324.267 290.132C319.554 290.132 315.734 286.311 315.734 281.599C315.734 276.887 319.555 273.066 324.267 273.066C328.979 273.066 332.8 276.886 332.8 281.599ZM392.533 290.132C387.82 290.132 384 286.311 384 281.599C384 276.887 387.82 273.066 392.533 273.066C397.246 273.066 401.066 276.886 401.066 281.599C401.066 286.312 397.246 290.132 392.533 290.132ZM414.199 230.988C412.414 245.181 400.411 255.868 386.107 255.999H321.638C317.472 255.998 313.916 252.99 313.224 248.882L304.392 196.265H417.331L414.199 230.988Z" fill="#2F3133"/>
</g>
<defs>
<clipPath id="clip0_2_723">
<rect width="512" height="512" fill="white"/>
</clipPath>
</defs>
</svg>
