<svg width="512" height="512" viewBox="0 0 512 512" fill="none" xmlns="http://www.w3.org/2000/svg">
<g clip-path="url(#clip0_2_357)">
<path d="M494.933 411.174V307.221C494.933 288.37 479.651 273.088 460.8 273.088H442.095L423.723 187.354C419.435 167.73 402.1 153.711 382.012 153.623H324.267V145.09C324.215 124.378 309.296 106.695 288.888 103.157C280.804 44.0568 230.318 0.00585938 170.667 0.00585938C111.017 0.00585938 60.5307 44.0558 52.4467 103.156C32.0388 106.694 17.1198 124.377 17.0678 145.089V411.191C6.87581 414.794 0.0458264 424.411 0.00082652 435.221C-0.0541734 441.98 2.63782 448.472 7.45881 453.209C12.2198 458.107 18.7698 460.855 25.6008 460.821H43.3497C47.5677 490.191 72.7287 511.997 102.401 511.997C132.073 511.997 157.234 490.191 161.452 460.821H350.549C354.767 490.191 379.928 511.997 409.6 511.997C439.271 511.997 464.433 490.191 468.651 460.821H486.4C500.538 460.821 512 449.359 512 435.221C511.977 424.4 505.141 414.767 494.933 411.174ZM451.319 409.621C428.16 386.867 391.039 386.867 367.88 409.621H324.266V290.154H418.133V298.687C418.133 312.825 429.595 324.287 443.733 324.287H477.866V341.354H469.333C464.62 341.354 460.8 345.174 460.8 349.887C460.8 354.6 464.621 358.42 469.333 358.42H477.866V409.62H451.319V409.621ZM156.289 426.688H355.712C353.139 432.084 351.399 437.838 350.549 443.755H161.451C160.602 437.837 158.862 432.083 156.289 426.688ZM477.867 307.221H443.734C439.021 307.221 435.201 303.4 435.201 298.688V290.155H460.801C470.226 290.154 477.867 297.795 477.867 307.221ZM382.012 170.689C394.065 170.743 404.467 179.155 407.04 190.929L424.644 273.088H324.267V170.689H382.012ZM170.667 17.0888C227.195 17.1498 273.005 62.9597 273.066 119.489C273.066 203.78 192.691 283.917 170.667 304.286C148.642 283.917 68.2667 203.78 68.2667 119.489C68.3287 62.9597 114.139 17.1498 170.667 17.0888ZM34.1338 145.089C34.1788 134.26 41.0337 124.63 51.2517 121.042C52.3187 225.557 160.521 318.357 165.155 322.266C168.337 324.959 172.997 324.959 176.179 322.266C180.813 318.358 289.015 225.558 290.082 121.042C300.3 124.63 307.155 134.259 307.2 145.089V409.621H144.12C120.961 386.867 83.8397 386.867 60.6807 409.621H34.1338V145.089ZM19.5168 441.143C17.9338 439.581 17.0508 437.445 17.0678 435.221C17.0678 430.508 20.8888 426.688 25.6008 426.688H48.5127C45.9547 432.086 44.2287 437.84 43.3927 443.755H25.6008C23.2988 443.76 21.0978 442.815 19.5168 441.143ZM102.401 494.954C78.8367 494.954 59.7337 475.851 59.7337 452.287C59.7337 428.723 78.8367 409.62 102.401 409.62C125.965 409.62 145.068 428.723 145.068 452.287C145.039 475.84 125.953 494.926 102.401 494.954ZM409.6 494.954C386.036 494.954 366.933 475.851 366.933 452.287C366.933 428.723 386.036 409.62 409.6 409.62C433.164 409.62 452.267 428.723 452.267 452.287C452.238 475.84 433.152 494.926 409.6 494.954ZM486.4 443.754H468.651C467.802 437.837 466.061 432.083 463.488 426.687H486.4C488.701 426.681 490.903 427.626 492.484 429.298C494.067 430.86 494.95 432.996 494.933 435.22C494.933 439.934 491.113 443.754 486.4 443.754Z" fill="#2F3133"/>
<path d="M358.4 315.754H341.333C336.62 315.754 332.8 319.575 332.8 324.287C332.8 329 336.62 332.82 341.333 332.82H358.4C363.113 332.82 366.933 328.999 366.933 324.287C366.933 319.575 363.113 315.754 358.4 315.754Z" fill="#2F3133"/>
<path d="M256.001 119.489C256.001 72.3613 217.796 34.1562 170.668 34.1562C123.54 34.1562 85.335 72.3613 85.335 119.489C85.335 166.617 123.54 204.822 170.668 204.822C217.774 204.77 255.949 166.596 256.001 119.489ZM102.401 119.489C102.401 81.7863 132.965 51.2223 170.668 51.2223C208.371 51.2223 238.935 81.7863 238.935 119.489C238.935 157.192 208.371 187.756 170.668 187.756C132.982 187.713 102.443 157.174 102.401 119.489Z" fill="#2F3133"/>
</g>
<defs>
<clipPath id="clip0_2_357">
<rect width="512" height="512" fill="white"/>
</clipPath>
</defs>
</svg>
