<svg width="512" height="512" viewBox="0 0 512 512" fill="none" xmlns="http://www.w3.org/2000/svg">
<g clip-path="url(#clip0_2_370)">
<path d="M494.933 409.598V102.398C494.905 78.8459 475.819 59.7599 452.266 59.7309H323.678C319.403 25.6069 290.391 0.00390625 256 0.00390625C221.609 0.00390625 192.597 25.6079 188.322 59.7319H59.733C36.181 59.7599 17.095 78.8459 17.066 102.399V409.599C7.641 409.598 0 417.239 0 426.665V452.265C0.038 485.239 26.759 511.961 59.733 511.998H452.266C485.24 511.96 511.962 485.239 511.999 452.265V426.665C512 417.239 504.359 409.598 494.933 409.598ZM315.733 136.532C320.446 136.532 324.266 140.352 324.266 145.065C324.266 149.778 320.445 153.598 315.733 153.598C311.02 153.598 307.2 149.777 307.2 145.065C307.2 140.353 311.021 136.532 315.733 136.532ZM307.2 121.035C295.445 125.191 288.394 137.211 290.502 149.5C292.61 161.789 303.265 170.771 315.733 170.771C328.201 170.771 338.856 161.789 340.964 149.5C343.072 137.211 336.021 125.191 324.266 121.035V110.932H366.011C368.003 110.78 369.81 112.096 370.278 114.038L392.465 350.463C392.82 354.439 391.456 358.378 388.719 361.283C385.286 364.937 380.48 366.986 375.467 366.932H136.533C131.508 366.995 126.687 364.946 123.247 361.283C120.51 358.377 119.146 354.439 119.501 350.463L141.688 114.038C142.155 112.096 143.963 110.78 145.955 110.932H187.734V121.035C175.979 125.191 168.928 137.211 171.036 149.5C173.144 161.789 183.799 170.771 196.267 170.771C208.735 170.771 219.39 161.789 221.498 149.5C223.606 137.211 216.555 125.191 204.8 121.035V110.932H307.2V121.035ZM196.267 136.532C200.98 136.532 204.8 140.352 204.8 145.065C204.8 149.778 200.979 153.598 196.267 153.598C191.555 153.598 187.734 149.777 187.734 145.065C187.734 140.353 191.554 136.532 196.267 136.532ZM204.8 93.8649V76.7979H307.2V93.8649H204.8ZM256 17.0649C280.957 17.1109 302.252 35.1269 306.432 59.7319H205.568C209.748 35.1269 231.043 17.1109 256 17.0649ZM34.133 102.398C34.133 88.2599 45.595 76.7979 59.733 76.7979H187.733V93.8649H145.988C135.153 93.6079 125.919 101.678 124.723 112.451L102.536 348.867C101.722 357.626 104.68 366.317 110.668 372.76C117.331 379.969 126.716 384.047 136.533 383.998H375.466C385.292 384.06 394.691 379.988 401.365 372.777C407.353 366.333 410.311 357.643 409.497 348.884L387.31 112.511C386.141 101.702 376.88 93.5939 366.011 93.8659H324.266V76.7979H452.266C466.404 76.7979 477.866 88.2599 477.866 102.398V409.598H34.133V102.398ZM179.2 426.665H332.8V435.198C332.8 444.624 325.159 452.265 315.733 452.265H196.267C186.841 452.265 179.2 444.624 179.2 435.198V426.665ZM494.933 452.265C494.905 475.817 475.819 494.903 452.266 494.932H59.733C36.181 494.904 17.095 475.818 17.066 452.265V426.665H162.133V435.198C162.133 454.049 177.415 469.331 196.266 469.331H315.733C334.584 469.331 349.866 454.049 349.866 435.198V426.665H494.933V452.265Z" fill="#2F3133"/>
<path d="M128 443.732H102.4C97.6872 443.732 93.8672 447.553 93.8672 452.265C93.8672 456.977 97.6882 460.798 102.4 460.798H128C132.713 460.798 136.533 456.978 136.533 452.265C136.533 447.552 132.713 443.732 128 443.732Z" fill="#2F3133"/>
<path d="M51.2 460.798C55.9126 460.798 59.733 456.978 59.733 452.265C59.733 447.553 55.9126 443.732 51.2 443.732C46.4873 443.732 42.667 447.553 42.667 452.265C42.667 456.978 46.4873 460.798 51.2 460.798Z" fill="#2F3133"/>
<path d="M76.8001 460.798C81.5127 460.798 85.3331 456.978 85.3331 452.265C85.3331 447.553 81.5127 443.732 76.8001 443.732C72.0874 443.732 68.2671 447.553 68.2671 452.265C68.2671 456.978 72.0874 460.798 76.8001 460.798Z" fill="#2F3133"/>
<path d="M145.067 341.332C145.067 346.045 148.887 349.865 153.6 349.865H358.4C363.113 349.865 366.933 346.045 366.933 341.332C366.933 336.619 363.113 332.799 358.4 332.799H153.6C148.887 332.798 145.067 336.619 145.067 341.332Z" fill="#2F3133"/>
</g>
<defs>
<clipPath id="clip0_2_370">
<rect width="512" height="512" fill="white"/>
</clipPath>
</defs>
</svg>
